<svg width="199" height="47" viewBox="0 0 199 47" fill="none" xmlns="http://www.w3.org/2000/svg">
<path d="M90.4073 36.099C87.1127 37.0482 85.136 35.9803 84.1776 33.0138C82.5004 27.7335 79.146 25.1823 73.4554 26.4875C71.5386 26.9028 71.5985 25.6569 71.4787 24.2923C71.3589 22.6311 72.0777 22.3345 73.5752 22.3938C76.5702 22.5124 79.5653 22.4531 82.5603 22.3938C85.0162 22.3345 85.9746 21.3852 85.9746 19.2493C85.9746 17.1134 84.9563 16.1642 82.5004 16.1642C79.3856 16.1048 76.2108 16.0455 73.096 16.1642C71.4188 16.2235 71.4787 15.3335 71.5386 14.2063C71.5985 13.1977 71.1193 11.9517 73.0361 12.0111C76.3306 12.1297 79.6252 11.9517 82.9197 12.0704C86.5736 12.1891 89.0895 14.0283 89.8682 16.9948C90.8266 20.7919 89.5687 24.233 86.334 25.9536C85.136 26.6062 85.5553 27.0808 85.9147 27.7928C87.3523 30.522 88.8499 33.2511 90.4073 36.099Z" fill="#F4F7F7"/>
<path d="M133.835 29.2759C133.835 27.4367 133.895 25.5381 133.835 23.6989C133.775 22.5123 134.195 22.1563 135.393 22.1563C138.627 22.2156 141.802 22.2156 145.037 22.1563C147.672 22.1563 148.81 21.207 148.751 19.1305C148.751 17.1726 147.612 16.2233 145.097 16.164C141.862 16.1047 138.687 16.0453 135.453 16.164C133.596 16.2233 133.835 15.1554 133.835 14.0281C133.835 12.9009 133.596 11.8329 135.453 11.8923C138.747 12.0702 142.042 11.8329 145.336 11.9516C150.548 12.1296 153.183 14.9181 152.824 19.8424C152.584 23.4616 150.128 25.8941 146.474 26.0721C144.138 26.1907 141.862 26.1907 139.526 26.0721C138.208 26.0127 137.849 26.4874 137.909 27.7333C137.968 30.0472 137.789 32.361 137.968 34.6156C138.088 36.4548 136.95 36.1581 135.812 36.2175C134.734 36.2175 133.715 36.3954 133.835 34.7342C133.955 32.9543 133.835 31.1151 133.835 29.2759Z" fill="#F1A302"/>
<path d="M54.165 21.505C52.1883 25.5987 50.1517 29.5738 48.4146 33.6676C47.5161 35.8628 46.2581 36.7527 43.922 36.3374C43.5027 36.2781 43.0235 36.3374 42.125 36.3374C46.1982 28.2092 50.1517 20.3777 54.2848 12.0715C58.418 20.259 62.3714 28.0906 66.5645 36.3374C65.3065 36.3374 64.408 36.2187 63.5095 36.3374C62.1318 36.5154 61.3531 35.9814 60.814 34.6762C59.0769 30.8197 57.22 27.0226 55.363 23.2255C55.0635 22.6916 54.9437 22.0389 54.165 21.505Z" fill="#F4F7F7"/>
<path d="M93.8164 12.1292C98.6684 11.8326 98.6684 11.8326 100.585 15.8077C102.322 19.4861 104.059 23.1053 106.036 27.199C108.013 23.0459 109.81 19.3081 111.607 15.511C113.464 11.6546 113.464 11.6546 118.136 12.1886C114.123 20.1388 110.229 27.9703 106.036 36.2765C101.903 28.089 97.9495 20.2574 93.8164 12.1292Z" fill="#F4F7F7"/>
<path d="M175.287 12.3666C178.582 11.4766 180.678 12.2479 182.295 14.7991C183.434 16.6383 184.991 18.1216 186.309 19.8421C187.088 20.8507 187.507 20.7914 188.226 19.7828C189.244 18.2402 190.442 16.8163 191.58 15.3331C194.276 11.8326 194.276 11.7733 198.948 12.1292C199.187 12.8412 198.588 13.1972 198.229 13.6125C197.211 14.9771 196.252 16.4603 194.994 17.5876C190.142 22.156 187.866 27.555 189.004 34.2593C189.304 35.9798 188.525 36.3951 186.908 36.3358C185.35 36.3358 184.692 35.9205 184.931 34.3186C186.129 27.4957 183.673 21.978 178.941 17.1723C177.623 15.8077 176.605 14.0871 175.287 12.3666Z" fill="#F1A302"/>
<path d="M159.348 24.1721C159.348 20.7903 159.468 17.3492 159.288 13.9674C159.228 12.1875 160.067 12.1282 161.445 12.1282C162.762 12.1282 163.481 12.2468 163.421 13.9081C163.302 19.4851 163.421 25.0027 163.361 30.5797C163.361 32.0036 163.721 32.5376 165.218 32.4783C168.213 32.3596 171.208 32.5376 174.203 32.419C176 32.3596 175.641 33.4869 175.641 34.4362C175.641 35.3854 176 36.5127 174.263 36.5127C169.771 36.3941 165.278 36.4534 160.846 36.5127C159.528 36.5127 159.408 35.9787 159.408 34.9108C159.408 31.2917 159.348 27.7319 159.348 24.1721Z" fill="#F7A500"/>
<path d="M126.883 12.3069C126.883 18.9518 127.063 25.5374 126.883 32.1824C126.823 34.4369 124.367 34.9709 122.81 36.0388C122.81 30.5211 123.109 24.9441 122.75 19.4265C122.451 15.8667 123.828 13.7901 126.883 12.3069Z" fill="#F4F7F7"/>
<path d="M126.882 12.3072C123.887 13.7312 122.51 15.867 122.749 19.4268C123.109 24.9445 122.809 30.5215 122.809 36.0391C121.611 36.0985 121.851 35.1492 121.851 34.4966C121.851 28.3263 121.791 22.156 121.851 15.9264C121.791 14.0278 125.026 11.7733 126.882 12.3072Z" fill="#D0990C"/>
<path d="M146.534 41.0812C146.055 42.3864 144.318 41.0218 144.198 42.2678C144.078 43.395 145.695 42.4458 146.055 43.3357C145.935 44.5223 143.958 43.217 144.258 44.5816C144.437 45.4716 145.755 44.7003 146.654 45.6496C145.456 46.2429 143.958 46.4802 143.419 45.7682C142.461 44.5223 142.64 42.6237 143.239 41.3185C143.719 40.1912 145.276 40.7845 146.534 41.0812Z" fill="#D0990C"/>
<path d="M132.096 45.7698C130.419 46.0665 128.921 46.6005 128.322 45.5918C127.663 44.3459 127.663 42.566 128.322 41.3201C128.921 40.1928 130.419 41.0235 131.437 40.9048C131.557 41.5574 131.377 41.6761 131.018 41.7947C130.419 41.9727 129.46 41.4388 129.281 42.2694C129.101 43.278 130.239 42.8034 130.718 43.1C130.898 43.1593 131.078 43.3967 131.018 43.5746C131.018 43.7526 130.778 43.9306 130.599 43.9899C130.119 44.2273 129.161 43.7526 129.221 44.5832C129.341 45.4732 130.299 44.9392 130.898 45.1765C131.257 45.1765 131.377 45.2952 132.096 45.7698Z" fill="#D0990C"/>
<path d="M189.061 45.6505C187.922 46.2438 186.365 46.4811 185.886 45.6505C185.107 44.4046 185.107 42.506 185.886 41.2008C186.365 40.3701 187.922 40.7261 189.12 41.0821C188.641 42.3873 186.904 41.0821 186.844 42.328C186.784 43.2773 188.162 42.6247 188.641 43.218C188.641 44.5232 186.605 43.3366 186.904 44.5825C187.024 45.5912 188.521 44.5232 189.061 45.6505Z" fill="#D0990C"/>
<path d="M173.785 46.0061C172.228 45.8281 171.27 44.9975 171.21 43.5143C171.15 42.031 172.108 41.0224 173.666 40.9038C175.103 40.7851 176.481 42.0903 176.361 43.5143C176.301 44.9975 175.343 45.8281 173.785 46.0061ZM175.463 43.3363C175.223 42.387 174.684 41.7344 173.606 41.7937C172.707 41.9124 172.108 42.565 172.168 43.4549C172.228 44.4635 172.947 45.0568 173.965 44.9382C174.924 44.8788 175.403 44.2262 175.463 43.3363Z" fill="#D0990C"/>
<path d="M136.886 45.7708C135.569 46.6607 134.61 40.9057 133.532 46.4827C132.633 44.5248 132.753 42.8636 133.113 41.4397C133.412 40.2531 134.91 40.8464 135.808 40.9651C136.707 41.0837 137.366 42.0923 136.827 42.8043C135.988 43.8722 136.347 44.8808 136.886 45.7708ZM134.97 43.0416C135.269 42.9823 135.928 43.1009 135.928 42.3296C135.868 41.7957 135.329 41.7957 134.91 41.7957C134.49 41.7957 133.951 41.7363 133.951 42.389C133.891 42.9823 134.371 43.0416 134.97 43.0416Z" fill="#D0990C"/>
<path d="M169.835 40.6665C170.134 42.6244 170.314 44.2263 169.775 45.9468C168.577 45.5909 169.595 43.9296 168.038 43.9296C166.361 43.8703 167.439 45.5315 166.361 45.9468C165.702 44.2856 166.181 42.6244 166.061 40.9038C167.559 41.0818 166.301 43.5143 168.337 43.0397C169.595 42.6837 168.637 41.3785 169.835 40.6665Z" fill="#D0990C"/>
<path d="M123.291 45.9475C122.512 44.5236 122.692 43.0403 122.811 41.6164C122.931 40.2518 124.189 40.9044 124.968 40.8451C125.986 40.7264 126.705 41.2011 126.825 42.269C126.885 43.159 126.406 43.8709 125.567 43.8116C123.95 43.6929 123.71 44.7609 123.291 45.9475ZM125.747 42.3284C125.567 41.6164 125.028 41.7944 124.549 41.7944C124.189 41.7944 123.77 41.8537 123.77 42.3284C123.77 43.0403 124.309 43.0403 124.848 43.0403C125.327 42.981 125.687 42.8623 125.747 42.3284Z" fill="#D0990C"/>
<path d="M184.389 44.9381C182.652 46.3026 181.454 46.1246 180.436 44.9974C179.418 43.9294 179.537 42.6835 180.556 41.6156C181.634 40.5477 182.772 40.4883 184.389 41.6749C182.832 42.0309 180.795 41.2003 180.855 43.4548C180.915 45.472 182.712 44.7601 184.389 44.9381Z" fill="#D0990C"/>
<path d="M151.744 45.0566C150.367 46.3619 149.169 46.1246 148.15 44.8193C147.252 43.6327 147.491 42.3868 148.629 41.4969C149.708 40.6069 150.786 40.5476 152.164 41.9122C150.546 42.0308 148.689 41.3189 148.689 43.4547C148.689 45.4126 150.486 44.8787 151.744 45.0566Z" fill="#D0990C"/>
<path d="M164.319 41.7354C163.001 41.854 161.384 41.3794 161.264 43.278C161.145 45.3545 162.942 44.8205 164.679 44.8799C163.481 46.1258 162.462 46.1851 161.444 45.4732C160.126 44.5832 159.827 43.3373 160.725 42.032C161.684 40.6081 162.942 40.4895 164.319 41.7354Z" fill="#D0990C"/>
<path d="M141.319 43.8129C140.061 43.9316 138.504 43.8722 138.923 46.1861C137.964 44.4062 137.905 42.6263 138.504 41.2617C138.863 40.3718 140.54 40.7278 141.678 41.1431C141.558 41.4397 141.558 41.6177 141.439 41.677C140.78 42.1517 139.462 41.3211 139.342 42.3297C139.162 43.8129 140.84 42.6263 141.319 43.3976C141.379 43.3976 141.319 43.5163 141.319 43.8129Z" fill="#D0990C"/>
<path d="M155.334 46.3037C154.136 44.4644 156.173 41.8539 152.998 41.32C154.555 40.7267 155.933 40.786 157.55 41.2013C154.615 41.8539 156.352 44.4051 155.334 46.3037Z" fill="#D0990C"/>
<path d="M178.097 45.8887C177.378 44.2868 177.498 42.6256 178.097 40.9644C178.696 42.5663 178.696 44.2275 178.097 45.8887Z" fill="#D0990C"/>
<path d="M175.465 43.3375C175.345 44.2868 174.926 44.8801 173.967 44.9988C172.949 45.0581 172.23 44.5241 172.17 43.5155C172.11 42.6256 172.709 41.973 173.608 41.8543C174.686 41.6763 175.225 42.3883 175.465 43.3375Z" fill="#0A5847"/>
<path d="M134.972 43.0401C134.313 43.0401 133.894 42.9807 133.894 42.3874C133.894 41.7348 134.433 41.7941 134.852 41.7941C135.271 41.7941 135.87 41.7941 135.87 42.3281C135.93 43.0401 135.271 42.9807 134.972 43.0401Z" fill="#0A5847"/>
<path d="M125.747 42.3294C125.687 42.8633 125.328 42.982 124.849 42.982C124.31 42.982 123.771 42.982 123.771 42.2701C123.771 41.7954 124.19 41.7361 124.549 41.7361C125.028 41.7954 125.627 41.6174 125.747 42.3294Z" fill="#0A5847"/>
<path d="M8.45294 45.6246C10.3099 45.3279 12.1069 44.9126 13.9638 44.794C15.4613 44.6753 15.7608 44.082 15.7608 42.7174C15.641 39.0983 16.1801 39.8103 12.646 39.6916C10.7292 39.6323 8.81234 39.6916 6.47622 39.6916C8.15343 36.7845 9.59105 34.2926 11.2683 31.3261C7.73413 31.3261 4.4995 31.3261 1.26486 31.3261C0.00694948 31.3261 -0.352454 31.0888 0.366353 29.8429C6.11681 20.0535 11.8074 10.264 17.5578 0.474638C17.6177 0.355979 17.7974 0.296649 18.1568 0C19.7143 2.61051 21.4514 5.10236 22.5895 7.89086C23.3083 9.61142 21.2118 10.6794 20.3732 12.4593C19.5346 11.154 18.8756 10.0861 18.2167 9.13678C17.4979 9.01812 17.438 9.55209 17.1984 9.90807C14.2034 15.0104 11.2683 20.1721 8.21334 25.2745C7.43463 26.6391 7.67423 26.8171 9.23165 26.995C12.5262 27.351 14.7425 26.5204 16.24 23.1979C18.037 19.2822 20.493 15.7224 22.7093 12.0439C23.0687 11.4506 23.2484 10.62 24.2068 10.264C28.0404 16.8497 31.8741 23.4353 35.7077 30.0209C36.1869 30.8515 36.2468 31.3854 35.0488 31.3854C29.5979 31.3854 24.2068 31.3854 18.7558 31.3854C19.7742 25.2745 24.6261 27.2917 28.6395 26.8171C27.082 24.1472 25.6444 21.7147 23.9073 18.8075C20.6727 24.3845 17.6177 29.6056 14.3232 35.3012C16.0603 35.3012 17.4979 35.3605 18.9355 35.3012C20.0138 35.2419 20.3732 35.6572 20.3133 36.7251C20.2534 38.7423 20.3732 40.7002 20.3133 42.7174C20.2534 44.0227 20.493 44.7346 22.0504 44.8533C23.6078 44.9126 25.1053 45.3279 26.6028 45.8619C20.5529 45.8619 14.5628 45.8619 8.51284 45.8619C8.45294 45.7433 8.45294 45.6839 8.45294 45.6246Z" fill="#F1A302"/>
</svg>
